<svg xmlns="http://www.w3.org/2000/svg" viewBox="0 0 16.933 16.933"><path fill="#55a1ff" d="M4.58 3.505h7.773c.733 0 1.323.59 1.323 1.323v10.253a1.32 1.32 0 0 1-1.323 1.323H4.58a1.32 1.32 0 0 1-1.323-1.323V4.828c0-.733.59-1.323 1.323-1.323z"/><path fill="#d1dcff" d="M11.109 9.144a2.642 2.642 0 0 1-2.642 2.642 2.642 2.642 0 0 1-2.642-2.642 2.642 2.642 0 0 1 2.642-2.642 2.642 2.642 0 0 1 2.642 2.642z"/><path fill="#5ea883" d="M8.467 7.86a1.034 1.034 0 0 0-1.034 1.034 1.034 1.034 0 0 0 .377.798 2.313 2.313 0 0 0-1.383 1.129 2.642 2.642 0 0 0 2.04.965 2.642 2.642 0 0 0 2.04-.965 2.313 2.313 0 0 0-1.385-1.13 1.034 1.034 0 0 0 .378-.797A1.034 1.034 0 0 0 8.467 7.86z"/><path fill="#bfd2ff" d="M38.23 37.209c-.74 2.923-4.556 5.166-7.728 4.008-1.528-.503-2.995.911-2.549 2.457a9.985 9.985 0 0 0 4.047.873c4.815 0 9.04-3.476 9.834-8.324-.752-1.577-3.18-1.138-3.604.986z" color="#000" font-family="sans-serif" font-weight="400" overflow="visible" transform="scale(.26458)" style="line-height:normal;font-variant-ligatures:normal;font-variant-position:normal;font-variant-caps:normal;font-variant-numeric:normal;font-variant-alternates:normal;font-feature-settings:normal;text-indent:0;text-align:start;text-decoration-line:none;text-decoration-style:solid;text-decoration-color:#000;text-transform:none;text-orientation:mixed;shape-padding:0;isolation:auto;mix-blend-mode:normal"/><path fill="#1d8769" style="line-height:normal;font-variant-ligatures:normal;font-variant-position:normal;font-variant-caps:normal;font-variant-numeric:normal;font-variant-alternates:normal;font-feature-settings:normal;text-indent:0;text-align:start;text-decoration-line:none;text-decoration-style:solid;text-decoration-color:#000;text-transform:none;text-orientation:mixed;shape-padding:0;isolation:auto;mix-blend-mode:normal" d="M9.983 290.231c-.33.564-1.138 1.01-1.913.74a.53.53 0 0 0-.674.651c.337.15.702.23 1.07.231.79 0 1.539-.354 2.04-.965a2.273 2.273 0 0 0-.523-.657z" color="#000" font-family="sans-serif" font-weight="400" overflow="visible" transform="translate(0 -280.067)"/><path fill="#4d4d4d" d="M5.738 293.246a.265.265 0 1 0 0 .53h5.457a.265.265 0 1 0 0-.53zm1.364 1.488a.265.265 0 1 0 0 .53H9.83a.265.265 0 1 0 0-.53z" color="#000" font-family="sans-serif" font-weight="400" overflow="visible" style="line-height:normal;font-variant-ligatures:normal;font-variant-position:normal;font-variant-caps:normal;font-variant-numeric:normal;font-variant-alternates:normal;font-feature-settings:normal;text-indent:0;text-align:start;text-decoration-line:none;text-decoration-style:solid;text-decoration-color:#000;text-transform:none;text-orientation:mixed;shape-padding:0;isolation:auto;mix-blend-mode:normal" transform="translate(0 -280.067)"/><path fill="#488bff" d="M12.867 289.72v5.354c0 .35-.284.567-.572.573H5.537c-.491 0-.64.512-.446.824h7.262a1.32 1.32 0 0 0 1.323-1.323v-5.883c-.365-.204-.803.11-.809.456z" color="#000" font-family="sans-serif" font-weight="400" overflow="visible" style="line-height:normal;font-variant-ligatures:normal;font-variant-position:normal;font-variant-caps:normal;font-variant-numeric:normal;font-variant-alternates:normal;font-feature-settings:normal;text-indent:0;text-align:start;text-decoration-line:none;text-decoration-style:solid;text-decoration-color:#000;text-transform:none;text-orientation:mixed;shape-padding:0;isolation:auto;mix-blend-mode:normal" transform="translate(0 -280.067)"/><path fill="#ffc861" d="M7.425.529a.792.792 0 0 0-.794.794V4.91h3.671V1.323a.792.792 0 0 0-.794-.794z"/><path fill="#ffab61" d="m10.302 284.114-1.837.004c-.51.002-.648.555-.418.86h2.255z" color="#000" font-family="sans-serif" font-weight="400" overflow="visible" style="line-height:normal;font-variant-ligatures:normal;font-variant-position:normal;font-variant-caps:normal;font-variant-numeric:normal;font-variant-alternates:normal;font-feature-settings:normal;text-indent:0;text-align:start;text-decoration-line:none;text-decoration-style:solid;text-decoration-color:#000;text-transform:none;text-orientation:mixed;shape-padding:0;isolation:auto;mix-blend-mode:normal" transform="translate(0 -280.067)"/><path fill="#4d4d4d" d="M9.25 2.562a.783.783 0 0 1-.783.784.783.783 0 0 1-.784-.784.783.783 0 0 1 .784-.783.783.783 0 0 1 .783.783z"/></svg>