<svg xmlns="http://www.w3.org/2000/svg" fill-rule="evenodd" clip-rule="evenodd" image-rendering="optimizeQuality" shape-rendering="geometricPrecision" text-rendering="geometricPrecision" viewBox="0 0 6.827 6.827"><path fill="#414141" d="M3.567 1.007v1.659a.154.154 0 0 1-.307 0v-1.66a.154.154 0 0 1 .307 0z"/><path fill="#df0024" d="M3.968 1.5a2.268 2.268 0 0 1 1.708 2.394 2.265 2.265 0 0 1-.798 1.544 2.265 2.265 0 0 1-1.656.527 2.265 2.265 0 0 1-1.544-.798 2.265 2.265 0 0 1-.003-2.925c.303-.36.71-.619 1.165-.737a.226.226 0 0 1 .274.161.226.226 0 0 1-.161.274 1.824 1.824 0 0 0-1.354 1.609A1.815 1.815 0 0 0 3.26 5.517c.483.041.958-.11 1.328-.423a1.819 1.819 0 0 0-.73-3.158.224.224 0 0 1 .11-.436z"/><path fill="none" d="M0 0h6.827v6.827H0z"/></svg>