<svg xmlns="http://www.w3.org/2000/svg" viewBox="0 0 70 70"><path fill="#607264" d="M30.709 58.434c-15.278 0-27.707-12.429-27.707-27.706C3.002 15.438 15.432 3 30.709 3c15.277 0 27.706 12.439 27.706 27.728a2.084 2.084 0 0 1-4.168 0c0-12.991-10.559-23.56-23.538-23.56S7.17 17.737 7.17 30.728c0 12.98 10.56 23.538 23.539 23.538a2.084 2.084 0 0 1 0 4.168z"/><path fill="#4f6555" d="M29.228 6.513c3.71 0 7.211.865 10.337 2.397a23.183 23.183 0 0 0-8.857-1.74c-12.974 0-23.54 10.566-23.54 23.561 0 9.274 5.408 17.33 13.234 21.154-8.618-3.491-14.704-11.953-14.704-21.81 0-12.985 10.556-23.562 23.53-23.562zm29.188 24.218a2.09 2.09 0 0 1-2.084 2.084c-.594 0-1.136-.25-1.521-.656h.041a2.077 2.077 0 0 0 2.084-2.085c0-10.983-6.419-20.507-15.703-24.988C51.309 9.233 58.416 19.164 58.416 30.73z"/><path fill="#607264" d="m49.96 30.163 5.469 9.471a1.042 1.042 0 0 0 1.805 0l5.47-9.471a1.042 1.042 0 0 0-.903-1.564H50.862c-.802 0-1.304.869-.902 1.564z"/><path fill="#4f6555" d="m62.7 30.158-5.461 9.472a1.047 1.047 0 0 1-1.813 0l-.355-.615c.396.063.813-.114 1.042-.5l5.471-9.472a.883.883 0 0 0 .125-.448h.094c.802 0 1.303.875.896 1.563z"/><path fill="#dfd9d2" d="M40.044 35.304h-3.916v-8.608a6.516 6.516 0 0 0-6.507-6.508 6.516 6.516 0 0 0-6.509 6.508v8.608h-3.916v-8.608c0-5.748 4.677-10.424 10.425-10.424s10.423 4.676 10.423 10.424v8.608z"/><path fill="#d4cdc1" d="M33.632 21.581a6.461 6.461 0 0 0-4.273-1.385c-3.537.138-6.25 3.225-6.25 6.765v8.344h-3.917v-2.72a2.82 2.82 0 0 0 2.82-2.82v-4.17c0-3.593 2.917-6.51 6.5-6.51 2.076 0 3.926.979 5.12 2.496zm6.412 5.11v8.614h-3.916v-2.72a2.81 2.81 0 0 0 2.81-2.81v-4.18c0-2.594-.95-4.973-2.526-6.794a10.38 10.38 0 0 1 3.632 7.89z"/><path fill="#51a3f1" d="M41.958 35.259c4.362 4.362 4.798 20.798 0 24.675-4.8 3.878-19.882 3.878-24.68 0-4.799-3.877-4.363-20.313 0-24.675 4.362-4.363 20.317-4.363 24.68 0z"/><path fill="#7dc4ff" d="M32.26 32.088c-5.862-.447-12.42.609-14.983 3.17-2.375 2.376-3.583 8.33-3.419 13.888h3.545c8.205 0 14.857-6.652 14.857-14.857v-2.2z"/><path fill="#4087f1" d="M41.96 59.934c-4.8 3.878-19.882 3.878-24.683 0-.595-.478-1.107-1.151-1.541-1.97 5.747 3.06 19.015 2.799 23.46-.795 4.328-3.499 4.395-17.212 1.162-23.065a6.78 6.78 0 0 1 1.603 1.158c4.361 4.361 4.795 20.795 0 24.672z"/><path fill="#394a39" d="m31.27 47.164.937 4.85H27.03l.937-4.85a3.505 3.505 0 0 1 1.651-6.597 3.5 3.5 0 0 1 3.51 3.5c0 1.35-.749 2.512-1.858 3.097z"/><path fill="#582219" d="M64.387 67H38a2.612 2.612 0 0 1-2.612-2.612V53.255a2.612 2.612 0 0 1 2.612-2.612h1.272v-6.03a.795.795 0 0 1 1.358-.562l6.592 6.592h17.164a2.612 2.612 0 0 1 2.611 2.612v11.133A2.612 2.612 0 0 1 64.387 67z"/><path fill="#6f362a" d="M57.58 50.643H47.222l-6.592-6.592a.795.795 0 0 0-1.358.563v6.03h-1.272a2.612 2.612 0 0 0-2.612 2.611v2.935h16.644a5.546 5.546 0 0 0 5.546-5.547z"/><path fill="#48140f" d="M64.826 50.688v4.728a8.948 8.948 0 0 1-8.947 8.948h-20.49v.024A2.612 2.612 0 0 0 38.001 67h26.386a2.612 2.612 0 0 0 2.611-2.612V53.255c0-1.292-.94-2.357-2.172-2.567z"/><path fill="#f4efea" d="m44.007 58.692-1.814.553 1.192 1.675-1.088.759-1.173-1.571-1.192 1.57-1.087-.758 1.174-1.675-1.795-.553.396-1.26 1.761.587v-2.054h1.468v2.054l1.743-.587.415 1.26zm6.719 0-1.814.553 1.192 1.675-1.088.759-1.173-1.571-1.192 1.57-1.087-.758 1.174-1.675-1.795-.553.396-1.26 1.761.587v-2.054h1.468v2.054l1.743-.587.415 1.26zm6.719 0-1.814.553 1.192 1.675-1.088.759-1.173-1.571-1.192 1.57-1.087-.758 1.174-1.675-1.795-.553.396-1.26 1.762.587v-2.054h1.467v2.054l1.743-.587.415 1.26zm6.719 0-1.813.553 1.192 1.675-1.088.759-1.174-1.571-1.192 1.57-1.087-.758 1.174-1.675-1.795-.553.396-1.26 1.762.587v-2.054h1.467v2.054l1.743-.587.415 1.26z"/><path fill="#874b41" d="M57.58 52.203a.624.624 0 0 1-.624.623h-3.784a.624.624 0 0 1-.623-.623c0-.34.284-.614.623-.614h3.784c.34 0 .623.275.623.614zm-6.296 0a.624.624 0 0 1-.623.623h-8.805a.618.618 0 1 1 0-1.237h8.805c.34 0 .623.275.623.614z"/></svg>