<svg xmlns="http://www.w3.org/2000/svg" viewBox="0 0 24 24"><circle cx="12" cy="7" r="6" fill="#2D98D4"/><path fill="#2D98D4" d="M20.539 16.255C18.535 15.226 15.427 14 12 14s-6.535 1.226-8.539 2.255A4.5 4.5 0 0 0 1 20.268V23h22v-2.732a4.5 4.5 0 0 0-2.461-4.013z"/><path fill="#010101" d="M1 22.75h22V23H1z" opacity=".1"/><path fill="#FFF" d="M12 1.25c3.266 0 5.926 2.625 5.994 5.875 0-.042.006-.083.006-.125 0-3.309-2.691-6-6-6S6 3.691 6 7c0 .042.005.083.006.125C6.074 3.875 8.734 1.25 12 1.25z" opacity=".2"/><path fill="#010101" d="M12 12.75c-3.266 0-5.926-2.625-5.994-5.875C6.006 6.917 6 6.958 6 7c0 3.309 2.691 6 6 6s6-2.691 6-6c0-.042-.005-.083-.006-.125-.068 3.25-2.728 5.875-5.994 5.875z" opacity=".1"/><path fill="#FFF" d="M20.539 16.255C18.535 15.226 15.427 14 12 14s-6.535 1.226-8.539 2.255A4.5 4.5 0 0 0 1 20.268v.25a4.5 4.5 0 0 1 2.461-4.013C5.465 15.476 8.573 14.25 12 14.25s6.535 1.226 8.539 2.255A4.5 4.5 0 0 1 23 20.518v-.25a4.5 4.5 0 0 0-2.461-4.013z" opacity=".2"/><linearGradient id="a" x1="3.784" x2="24.385" y1="10.423" y2="20.03" gradientUnits="userSpaceOnUse"><stop offset="0" stop-color="#FFF" stop-opacity=".2"/><stop offset="1" stop-color="#FFF" stop-opacity="0"/></linearGradient><path fill="url(#a)" d="M12 13c3.309 0 6-2.691 6-6s-2.691-6-6-6-6 2.691-6 6 2.691 6 6 6zm8.539 3.255C18.535 15.226 15.427 14 12 14s-6.535 1.226-8.539 2.255A4.5 4.5 0 0 0 1 20.268V23h22v-2.732a4.5 4.5 0 0 0-2.461-4.013z"/></svg>