<svg xmlns="http://www.w3.org/2000/svg" viewBox="0 0 512 512"><polyline fill="#f2c837" points="312 248 440 248 472 248 472 360 40 360 40 248 72 248 136 248"/><rect width="32" height="32" x="40" y="248" fill="#ffe76c"/><path fill="#f2c837" d="M312,248H472V152a16,16,0,0,0-16-16H84.07a16.023,16.023,0,0,0-15.39,11.6L40,248h96"/><path fill="#cfab2f" d="M65.14,160l-4.57,16H32v24a8,8,0,0,1-16,0V168a8,8,0,0,1,8-8Z"/><rect width="464" height="32" x="24" y="328" fill="#cfab2f"/><path fill="#cfab2f" d="M136,104H296a16,16,0,0,1,16,16v16a0,0,0,0,1,0,0H120a0,0,0,0,1,0,0V120A16,16,0,0,1,136,104Z"/><rect width="96" height="160" x="216" y="168" fill="#dbb532"/><rect width="128" height="80" x="312" y="168" fill="#e9eef2"/><rect width="64" height="80" x="376" y="168" fill="#e9eef2"/><polyline fill="#e9eef2" points="168 168 216 168 216 248 168 248"/><polyline fill="#e9eef2" points="136 248 72 248 96 168 136 168"/><rect width="32" height="32" x="440" y="248" fill="#d13330"/><circle cx="384" cy="360" r="48" fill="#606669"/><circle cx="384" cy="360" r="16" fill="#e9eef2"/><rect width="48" height="160" x="264" y="168" fill="#e6be34"/><rect width="32" height="80" x="360" y="168" fill="#f2c837"/><rect width="64" height="80" x="72" y="248" fill="#e6be34"/><circle cx="136" cy="360" r="48" fill="#606669"/><circle cx="136" cy="360" r="16" fill="#e9eef2"/><polygon fill="#cfab2f" points="72 248 120 248 120 216 81.6 216 72 248"/></svg>